<svg width="60" height="61" viewBox="0 0 60 61" fill="none" xmlns="http://www.w3.org/2000/svg">
<path d="M30 18.5C30 25.1274 24.6274 30.5 18 30.5C11.3726 30.5 6 25.1274 6 18.5C6 11.8726 11.3726 6.5 18 6.5C24.6274 6.5 30 11.8726 30 18.5Z" fill="#404040"/>
<path d="M54 18.5C54 25.1274 48.6274 30.5 42 30.5C35.3726 30.5 30 25.1274 30 18.5C30 11.8726 35.3726 6.5 42 6.5C48.6274 6.5 54 11.8726 54 18.5Z" fill="#FFD11A"/>
<path d="M54 42.5C54 49.1274 48.6274 54.5 42 54.5C35.3726 54.5 30 49.1274 30 42.5C30 35.8726 35.3726 30.5 42 30.5C48.6274 30.5 54 35.8726 54 42.5Z" fill="#404040"/>
<path d="M30 42.5C30 49.1274 24.6274 54.5 18 54.5C11.3726 54.5 6 49.1274 6 42.5C6 35.8726 11.3726 30.5 18 30.5C24.6274 30.5 30 35.8726 30 42.5Z" fill="#FFD11A"/>
</svg>
