<svg width="20" height="20" viewBox="0 0 20 20" fill="none" xmlns="http://www.w3.org/2000/svg">
<path fill-rule="evenodd" clip-rule="evenodd" d="M5.45454 5.96046e-07L19.0909 0C19.332 0 19.5632 0.0957789 19.7337 0.266267C19.9042 0.436754 20 0.667985 20 0.909091V14.5455C20 15.0475 19.593 15.4545 19.0909 15.4545C18.5888 15.4545 18.1818 15.0475 18.1818 14.5455V3.10383L1.55192 19.7337C1.19689 20.0888 0.621289 20.0888 0.266267 19.7337C-0.0887555 19.3787 -0.0887555 18.8031 0.266267 18.4481L16.8962 1.81818L5.45454 1.81818C4.95247 1.81818 4.54545 1.41117 4.54545 0.909091C4.54545 0.407015 4.95247 5.96046e-07 5.45454 5.96046e-07Z" fill="#FFD11A"/>
</svg>
