<svg width="53" height="53" viewBox="0 0 53 53" fill="none" xmlns="http://www.w3.org/2000/svg">
<rect x="0.333252" y="0.5" width="52" height="52" rx="26" fill="#FFD11A"/>
<path fill-rule="evenodd" clip-rule="evenodd" d="M22.5833 18.25L33.8333 18.25C34.0322 18.25 34.2229 18.329 34.3636 18.4697C34.5042 18.6103 34.5833 18.8011 34.5833 19V30.25C34.5833 30.6642 34.2475 31 33.8333 31C33.419 31 33.0833 30.6642 33.0833 30.25V20.8107L19.3636 34.5303C19.0707 34.8232 18.5958 34.8232 18.3029 34.5303C18.01 34.2374 18.01 33.7626 18.3029 33.4697L32.0226 19.75L22.5833 19.75C22.169 19.75 21.8333 19.4142 21.8333 19C21.8333 18.5858 22.169 18.25 22.5833 18.25Z" fill="#141414"/>
</svg>
