<svg width="21" height="20" viewBox="0 0 21 20" fill="none" xmlns="http://www.w3.org/2000/svg">
<path d="M17.8858 1.33331H3.11157C2.77221 1.33331 2.44676 1.46812 2.2068 1.70808C1.96684 1.94804 1.83203 2.2735 1.83203 2.61285V17.3871C1.83203 17.7265 1.96684 18.0519 2.2068 18.2919C2.44676 18.5318 2.77221 18.6666 3.11157 18.6666H17.8858C18.2252 18.6666 18.5506 18.5318 18.7906 18.2919C19.0306 18.0519 19.1654 17.7265 19.1654 17.3871V2.61285C19.1654 2.2735 19.0306 1.94804 18.7906 1.70808C18.5506 1.46812 18.2252 1.33331 17.8858 1.33331ZM6.99833 16.0991H4.39231V7.82128H6.99833V16.0991ZM5.69351 6.67415C5.39791 6.67248 5.10941 6.58329 4.86445 6.41782C4.61949 6.25235 4.42903 6.01803 4.31711 5.74442C4.20519 5.47081 4.17683 5.17018 4.23561 4.88047C4.29439 4.59076 4.43767 4.32496 4.64737 4.1166C4.85706 3.90824 5.12379 3.76667 5.41387 3.70976C5.70395 3.65284 6.00439 3.68313 6.27727 3.7968C6.55016 3.91047 6.78325 4.10243 6.94714 4.34846C7.11104 4.59448 7.19838 4.88353 7.19814 5.17915C7.20093 5.37706 7.16385 5.57351 7.0891 5.75678C7.01435 5.94006 6.90346 6.10641 6.76305 6.24592C6.62265 6.38543 6.45559 6.49524 6.27184 6.56881C6.08809 6.64238 5.8914 6.67821 5.69351 6.67415ZM16.6039 16.1064H13.9991V11.5841C13.9991 10.2504 13.4321 9.83868 12.7003 9.83868C11.9275 9.83868 11.1692 10.4213 11.1692 11.6178V16.1064H8.56314V7.82729H11.0693V8.97442H11.103C11.3545 8.46526 12.2356 7.59498 13.5802 7.59498C15.0343 7.59498 16.6051 8.45804 16.6051 10.9858L16.6039 16.1064Z" fill="white"/>
</svg>
