<svg width="60" height="61" viewBox="0 0 60 61" fill="none" xmlns="http://www.w3.org/2000/svg">
<path d="M6 22.9997C6 29.6555 9.94088 35.3908 15.6165 37.9997H6C6 47.1124 13.3873 54.4997 22.5 54.4997C29.1558 54.4997 34.8912 50.5588 37.5 44.8831V54.4997C46.6127 54.4997 54 47.1124 54 37.9997C54 31.3439 50.0591 25.6085 44.3835 22.9997H54C54 13.887 46.6127 6.49966 37.5 6.49966C30.8442 6.49966 25.1088 10.4405 22.5 16.1162V6.49966C13.3873 6.49966 6 13.887 6 22.9997Z" fill="#404040"/>
<path d="M37.5 30.4998C37.5 34.6419 34.1421 37.9998 30 37.9998C25.8579 37.9998 22.5 34.6419 22.5 30.4998C22.5 26.3577 25.8579 22.9998 30 22.9998C34.1421 22.9998 37.5 26.3577 37.5 30.4998Z" fill="#FFD11A"/>
</svg>
