<?xml version="1.0" encoding="UTF-8"?>
<svg version="1.1" xmlns="http://www.w3.org/2000/svg" width="32" height="32">
<path d="M0 0 C0.7425 0.0825 1.485 0.165 2.25 0.25 C1.96125 1.19875 1.6725 2.1475 1.375 3.125 C0.52504196 8.66672641 4.14470489 12.94975589 7.25 17.25 C7.91 17.91 8.57 18.57 9.25 19.25 C9.79197662 24.34458023 9.79197662 24.34458023 8.25390625 26.9140625 C5.04195639 29.0553624 1.60359542 28.72214067 -2.125 28.6875 C-3.25808594 28.7174707 -3.25808594 28.7174707 -4.4140625 28.74804688 C-8.37083149 28.74458816 -10.31020372 28.53107715 -13.7265625 26.34765625 C-17.24653053 22.69857742 -17.07208926 19.76483402 -17.05078125 14.87109375 C-16.59400559 10.89062017 -15.01876279 8.51134651 -12.75 5.25 C-11.76 5.25 -10.77 5.25 -9.75 5.25 C-9.75 5.91 -9.75 6.57 -9.75 7.25 C-9.3375 6.8375 -8.925 6.425 -8.5 6 C-7.9225 5.4225 -7.345 4.845 -6.75 4.25 C-6.13125 3.528125 -5.5125 2.80625 -4.875 2.0625 C-2.75 0.25 -2.75 0.25 0 0 Z M-4.75 11.25 C-5.08 13.23 -5.41 15.21 -5.75 17.25 C-7.4 16.92 -9.05 16.59 -10.75 16.25 C-10.91681109 19.16652174 -10.91681109 19.16652174 -10.75 22.25 C-8.85244856 24.59973818 -8.85244856 24.59973818 -5.625 24.375 C-4.67625 24.33375 -3.7275 24.2925 -2.75 24.25 C-2.5334375 22.826875 -2.5334375 22.826875 -2.3125 21.375 C-1.75 18.25 -1.75 18.25 -0.75 16.25 C-2.06865712 13.60774595 -2.06865712 13.60774595 -3.75 11.25 C-4.08 11.25 -4.41 11.25 -4.75 11.25 Z " fill="#F6C40F" transform="translate(19.75,1.75)"/>
</svg>
