<svg width="256" height="256" viewBox="0 0 14 14" xmlns="http://www.w3.org/2000/svg"><rect x="0" y="0" width="14" height="14" rx="8" fill="none"/><svg xmlns="http://www.w3.org/2000/svg" viewBox="0 0 14 14" fill="#FFD11A" x="0" y="0" width="14" height="14"><path fill="none" stroke="#FFD11A" stroke-linecap="round" stroke-linejoin="round" d="M6.15.555a.389.389 0 0 0-.399 0a.26.26 0 0 0-.06.34c1.227 2.123 1.486 5.016-.19 6.611a5.505 5.505 0 0 1-1.495-1.994a3.88 3.88 0 0 0-1.995 3.49a4.688 4.688 0 0 0 4.987 4.488c3.211 0 4.877-1.994 4.986-4.488C12.114 6.01 9.99 2.33 6.15.555"/></svg></svg>