<svg width="256" height="256" viewBox="0 0 24 24" xmlns="http://www.w3.org/2000/svg"><rect x="0" y="0" width="24" height="24" rx="8" fill="none"/><svg xmlns="http://www.w3.org/2000/svg" viewBox="0 0 24 24" fill="#FFD11A" x="0" y="0" width="24" height="24"><g fill="none"><path d="M24 0v24H0V0h24ZM12.594 23.258l-.012.002l-.071.035l-.02.004l-.014-.004l-.071-.036c-.01-.003-.019 0-.024.006l-.004.01l-.017.428l.005.02l.01.013l.104.074l.015.004l.012-.004l.104-.074l.012-.016l.004-.017l-.017-.427c-.002-.01-.009-.017-.016-.018Zm.264-.113l-.014.002l-.184.093l-.01.01l-.003.011l.018.43l.005.012l.008.008l.201.092c.012.004.023 0 .029-.008l.004-.014l-.034-.614c-.003-.012-.01-.02-.02-.022Zm-.715.002a.023.023 0 0 0-.027.006l-.006.014l-.034.614c0 .012.007.02.017.024l.015-.002l.201-.093l.01-.008l.003-.011l.018-.43l-.003-.012l-.01-.01l-.184-.092Z"/><path fill="#FFD11A" d="M17 5.5a1.5 1.5 0 0 0 0 3h.379L14 11.879l-3.44-3.44a1.5 1.5 0 0 0-2.12 0l-6.5 6.5a1.5 1.5 0 0 0 2.12 2.122l5.44-5.44l3.44 3.44a1.5 1.5 0 0 0 2.12 0l4.44-4.44V11a1.5 1.5 0 0 0 3 0V7A1.5 1.5 0 0 0 21 5.5h-4Z"/></g></svg></svg>